<mxfile host="app.diagrams.net" modified="2020-07-29T03:46:54.890Z" agent="5.0 (X11; Linux x86_64) AppleWebKit/537.36 (KHTML, like Gecko) Chrome/84.0.4147.89 Safari/537.36" etag="HkAwJ3wZlKx-udeOv_SS" version="13.3.5" type="github">
  <diagram id="_XupxmgRZgFiJVG3xs9u" name="Page-1">
    <mxGraphModel dx="651" dy="1820" grid="1" gridSize="10" guides="1" tooltips="1" connect="1" arrows="1" fold="1" page="1" pageScale="1" pageWidth="850" pageHeight="1100" math="0" shadow="0">
      <root>
        <mxCell id="0" />
        <mxCell id="1" parent="0" />
        <mxCell id="-RJ861NaXAg-h8kTUt0W-1" value="&lt;b&gt;Software Update&lt;br&gt;- Moving from one version to another version of a software system&lt;br&gt;&lt;br&gt;Feature Scope:&lt;br&gt;- modular vs monolithic&lt;br&gt;&amp;nbsp; &amp;nbsp;&lt;br&gt;- upgrade vs downgrade&lt;br&gt;&lt;br&gt;&lt;br&gt;Out of Scope:&lt;br&gt;- version scheme&lt;br&gt;&lt;br&gt;&lt;br&gt;Side discussions:&lt;br&gt;--------------------------&lt;br&gt;Problem Statement&lt;br&gt;- Given two versions, find out whether a software update is possible?&lt;br&gt;&amp;nbsp; &amp;nbsp;Reqs: Min version, Max version, version skipping, version lock&lt;br&gt;&lt;br&gt;&lt;br&gt;graph&lt;br&gt;- we&#39;ll leave it for later where this will be used&lt;br&gt;&lt;br&gt;tree, arrry, table, map&lt;br&gt;&lt;br&gt;version skipping vs version transition path vs&amp;nbsp; steps supported&amp;nbsp;&lt;br&gt;Is Update always guaranteed?&lt;br&gt;Is versioning in the scope of SU?&lt;br&gt;&lt;br&gt;&amp;nbsp;previous to new version&lt;br&gt;&amp;nbsp; &amp;nbsp;- rollback???&lt;br&gt;&amp;nbsp; &amp;nbsp;- Downgrade vs Upgrade&lt;br&gt;&lt;br&gt;Types of Updates&lt;br&gt;- OS update&lt;br&gt;- Application Update&lt;br&gt;&amp;nbsp; - module update?&lt;br&gt;&amp;nbsp; - processes update??&lt;br&gt;- Firmware/Drivers (is it one and the same thing?)&lt;br&gt;- modular is a design pattern ....&lt;br&gt;- data only&lt;br&gt;&lt;br&gt;- OTA&lt;br&gt;- Updates&lt;br&gt;- Means of comm&lt;br&gt;&lt;br&gt;Previous version update&lt;br&gt;What&#39;s mechanism&lt;br&gt;&lt;br&gt;Embedded devices get bricked&lt;br&gt;- Firmware vs embedded sw&lt;br&gt;&lt;br&gt;&lt;br&gt;Device based update&lt;br&gt;- Manufacturing time????&lt;br&gt;&lt;/b&gt;" style="text;html=1;strokeColor=none;fillColor=none;align=left;verticalAlign=middle;whiteSpace=wrap;rounded=0;" vertex="1" parent="1">
          <mxGeometry x="10" y="20" width="520" height="710" as="geometry" />
        </mxCell>
      </root>
    </mxGraphModel>
  </diagram>
</mxfile>
